PathFileType	4	(X/Y/Z)	65_2_87_p0_0-294_filt_butterworth.trc
DataRate	CameraRate	NumFrames	NumMarkers	Units	OrigDataRate	OrigDataStartFrame	OrigNumFrames
50.0	50.0	5	27	m	50.0	73	294
Frame#	Time	RHip			RKnee			RAnkle			RBigToe			RSmallToe			RHeel			LHip			LKnee			LAnkle			LBigToe			LSmallToe			LHeel			Neck			Head			Nose			RShoulder			RElbow			RWrist			RThumb			RIndex			RPinky			LShoulder			LElbow			LWrist			LThumb			LIndex			LPinky			
		X1	Y1	Z1	X2	Y2	Z2	X3	Y3	Z3	X4	Y4	Z4	X5	Y5	Z5	X6	Y6	Z6	X7	Y7	Z7	X8	Y8	Z8	X9	Y9	Z9	X10	Y10	Z10	X11	Y11	Z11	X12	Y12	Z12	X13	Y13	Z13	X14	Y14	Z14	X15	Y15	Z15	X16	Y16	Z16	X17	Y17	Z17	X18	Y18	Z18	X19	Y19	Z19	X20	Y20	Z20	X21	Y21	Z21	X22	Y22	Z22	X23	Y23	Z23	X24	Y24	Z24	X25	Y25	Z25	X26	Y26	Z26	X27	Y27	Z27	
73	1.46	0.3858658813264538	0.7012512238751176	0.86416165391813	0.3644790234294066	0.26698972746319216	0.9787460803511435	0.28943405062985034	-0.1624797687238842	1.0016084111757257	0.2898606019571402	-0.21678871925434096	0.8743905420200535	0.34499581090691567	-0.2202676348427795	0.9062496649662989	0.26261814226640234	-0.2313370073519997	1.0666557607565237	0.16828811816649764	0.7274628084448748	0.9041734763765109	0.13704504622565736	0.2979058679350647	0.9797446248576793	0.10747583665876959	-0.1604635746050544	1.0279427682647875	0.1312079163922001	-0.17952455392128713	0.8576539231411191	0.06907328216142979	-0.17469428056523423	0.8976894882750842	0.11433075776120742	-0.2045473787075518	1.0548538585093847	0.3440402681956042	1.295139733986844	0.9093268660478804	0.36578243890127365	1.5360628470260784	0.8916706161017681	0.340555691139489	1.4103177653167618	0.7616705093993721	0.48352582640847896	1.2040559269718838	0.8420387395394013	0.4837275409630222	1.022003900865739	0.6608722660531505	0.3956667065771412	1.1602835405536551	0.44195232630005876	0.3542000480877273	1.24762517669199	0.36339453456903037	0.3561978933587494	1.248993122700602	0.3522262167225283	0.34958465288031393	1.2208699867096617	0.3245394905718637	0.19281001705432	1.2534278199594981	0.8738091064952322	0.09709903772483802	1.0974713665215967	0.7160603405486975	0.17824858394158033	1.2641756410321379	0.5159501298067508	0.20594082054171983	1.3266532043389772	0.4753998371279413	0.20400441222780297	1.3456942363431654	0.4407113462624807	0.2023378741493232	1.3230052311760099	0.4071774760440385	
74	1.48	0.38661506565588316	0.7010949834272476	0.864017454229526	0.3654592247443859	0.26657093843201457	0.9808079431862251	0.2893878907918688	-0.16241001174478586	1.0013580868428436	0.2898042848032634	-0.21667835726052884	0.8740842949435461	0.3446172759824141	-0.22074153116557985	0.9071188511100079	0.2628564087778907	-0.2319968661281256	1.0674898973728881	0.16794683412107655	0.7253515722125428	0.9037839588489025	0.13685652813571003	0.2972984853255194	0.9799125475563043	0.10750293875539754	-0.16087689707336778	1.0277949403288267	0.13194950646613912	-0.18033347962140803	0.8603482522406702	0.06914834457274897	-0.1746399233079949	0.8978334088981569	0.11424849081673046	-0.20438683190365386	1.0547293229467818	0.34407497530013054	1.295527173148069	0.9042395616477726	0.37033200319156834	1.537078380466636	0.8836949493238115	0.3466764391701751	1.4110545877906204	0.7548167077592972	0.48515720666756607	1.2049978926203953	0.843704349144074	0.502162847959514	1.0170822603377445	0.6781866418710392	0.43615941583581774	1.1524555904048124	0.4437571838161881	0.4032273134832528	1.2423799326967853	0.349846390914275	0.40448931618382244	1.2388711962675745	0.34238459964634815	0.40032951784452064	1.2118031109179703	0.3129565516613316	0.19015038709557056	1.250661689180029	0.8672393842235989	0.08009906708943297	1.0975388754891646	0.7234115005644298	0.14346312962078042	1.270602928051945	0.5252752526187205	0.1646565605408823	1.3401887077018038	0.4793908570451909	0.16166220994246694	1.3579959745934462	0.4565742933772507	0.16158495155619218	1.3338944725634243	0.42760434341688686	
75	1.5	0.38734718664731155	0.7007732984157311	0.8638287304203582	0.36639700229662364	0.2660305611129842	0.9829793174257135	0.28934748133428095	-0.16231405167219148	1.001107362261329	0.2897963011679907	-0.2172549485102067	0.8732562755503849	0.34418697934389275	-0.22128921776839533	0.9072597969145856	0.26312997587473186	-0.23267031692229334	1.0684592977978593	0.1676485861243051	0.723286593086923	0.9036579878661442	0.1365985895113836	0.29661295228404405	0.9802195449966985	0.10753934277829948	-0.1611086093281774	1.0275830759517097	0.1328028310134659	-0.1811624414840692	0.8631192579079149	0.06940567016646204	-0.17493747598360795	0.8985754327216627	0.11421227603172836	-0.20415855711441186	1.0546139970319521	0.3443750936390263	1.2947386286503817	0.8987571650013205	0.3748548200450323	1.5376602993473187	0.8738934823333468	0.3520204928983323	1.411007295522053	0.7508023429671522	0.4864565349678259	1.2058916378820859	0.8459269643247735	0.5229006730843466	1.0118627795923627	0.6938988812435021	0.4795876004058766	1.1434547507747927	0.4513908401889356	0.4567127412501748	1.2353232732458883	0.3385130066118231	0.4582020557739711	1.2280388339606991	0.33445133815697625	0.4562594398278904	1.2017158747066758	0.31423385896619116	0.18723521960265999	1.2470437819697122	0.8609892742294202	0.06155972970720143	1.0970035329667944	0.731158669641374	0.10498925525806657	1.2727956496718784	0.5386984083592128	0.12154389692725176	1.34986049760847	0.48227862149910755	0.11498742897139214	1.3666311896078747	0.4685175087009464	0.11373555329075385	1.3407275830259016	0.44817591204971974	
76	1.52	0.3881031799167087	0.7002752882402252	0.8638279930386792	0.36722337648488046	0.2655372349220537	0.9849311815186571	0.28934302075207496	-0.1622377208806413	1.0010069365223153	0.28980663620167046	-0.2184102028991269	0.8722809863136759	0.34382769461992113	-0.22163012145579725	0.9065593105842512	0.2634172377903775	-0.2332838840951086	1.06948862397116	0.16735609410016228	0.7213385930867982	0.9036272149004462	0.13634706958406262	0.2958818514688452	0.9804443873138892	0.10756092887127221	-0.161159617757923	1.027303682752778	0.1333589630130612	-0.18142597479566294	0.865068295196653	0.0697935321259342	-0.17577015126113035	0.9001389052817472	0.11423256231293931	-0.20412491351649398	1.054681387173551	0.3446392295742208	1.2932681068516196	0.8928649081581359	0.3787144123915478	1.537819607423838	0.8633965584049641	0.3561585155275432	1.4104640896997507	0.7486892252740122	0.48725607302890567	1.2063898879726886	0.8485988690370269	0.5446652164858492	1.0065305256071684	0.7079810085776105	0.5229758235280465	1.134151650269367	0.46307725293392354	0.5116839167447589	1.2276695449997992	0.33269874547275197	0.5149269703704454	1.218177647792875	0.3317082833044229	0.5136504316044554	1.1918354614779567	0.32534270068056165	0.18382041942311056	1.2438354102903446	0.8538398374574662	0.043268704423065116	1.095907209134886	0.7381542211576255	0.06738635444789896	1.2721788263545601	0.5520744657390563	0.07865090493480337	1.35509276496243	0.48498425565072684	0.06911542785497081	1.371387811591433	0.47451570308820556	0.06572942694941446	1.3439848159445382	0.4637840340383832	
77	1.54	0.38889691350710803	0.6995330900198418	0.864559103026159	0.36781757102163337	0.26510174554757615	0.9863362187013298	0.2893776172274506	-0.16222059961629898	1.0011071792895425	0.2897237736650972	-0.21998247199500182	0.8720882190044207	0.34373285799537384	-0.221745591290229	0.9050525459636445	0.2636820521228363	-0.2337775323267798	1.0704203979660367	0.1670790518719491	0.719533438539382	0.9037201438638218	0.13617250124352642	0.29508899196523963	0.9803948464879202	0.10754521245622216	-0.16126018709309367	1.0269779593857702	0.13348846432887265	-0.18122298165769637	0.8662584528217606	0.07024029439555514	-0.17706656036434834	0.9023945019873595	0.11431234305582781	-0.20446770166583347	1.0550372183252898	0.3445590270494155	1.291855957927945	0.8865902618546531	0.3815162443968486	1.537747215993158	0.8530270423771449	0.3590191968175912	1.4099867539901563	0.7470415975354197	0.48767504191569444	1.206222692093598	0.8512381546078207	0.5651471458020868	1.0016820489730842	0.7198535916944471	0.5633775478460136	1.1255893614162222	0.4750705380493726	0.563608043910724	1.2199425353594373	0.3339122071834729	0.5698986052925261	1.2102477196399886	0.3347668777228302	0.5680534688890049	1.1829294560072139	0.3412604864734704	0.1800582528394605	1.2418075096057757	0.846013884401813	0.026901339061631377	1.0945071537949453	0.7432558482084841	0.034705186114236425	1.2704806557904171	0.563577833197958	0.040012200900445175	1.357246436948973	0.4874496888882741	0.02889616176569048	1.3731522910571476	0.47843372113477356	0.023599916513035606	1.345371886779353	0.47325692230660976	
